<svg id="man" enable-background="new 0 0 300 300" height="512" viewBox="0 0 300 300" width="512" xmlns="http://www.w3.org/2000/svg"><g><path d="m233.275 91.597c0 2.362 1.915 4.276 4.276 4.276s4.276-1.915 4.276-4.276-1.915-4.277-4.276-4.277-4.276 1.916-4.276 4.277z"/><path d="m59.828 97.47c-2.501 0-4.529 2.028-4.529 4.53 0 2.501 2.028 4.529 4.529 4.529s4.529-2.028 4.529-4.529c0-2.502-2.027-4.53-4.529-4.53z"/><path d="m58.312 139.516c-1.562-1.562-4.094-1.562-5.656 0l-2.828 2.828-2.828-2.828c-1.562-1.562-4.094-1.562-5.656 0s-1.562 4.094 0 5.656l2.828 2.828-2.828 2.828c-1.562 1.562-1.562 4.094 0 5.656.781.781 1.805 1.172 2.828 1.172s2.047-.391 2.828-1.172l2.828-2.828 2.828 2.828c.781.781 1.805 1.172 2.828 1.172s2.047-.391 2.828-1.172c1.562-1.562 1.562-4.094 0-5.656l-2.828-2.828 2.828-2.828c1.563-1.563 1.563-4.094 0-5.656z"/><path d="m227.828 74c7.719 0 14-6.281 14-14s-6.281-14-14-14-14 6.281-14 14 6.281 14 14 14zm0-20c3.309 0 6 2.691 6 6s-2.691 6-6 6-6-2.691-6-6 2.692-6 6-6z"/><circle cx="161.312" cy="94.47" r="4"/><circle cx="121.312" cy="94.47" r="4"/><path d="m133.312 130.471h16c2.211 0 4-1.791 4-4s-1.789-4-4-4h-16c-2.211 0-4 1.791-4 4s1.79 4 4 4z"/><path d="m97.828 226c-2.211 0-4 1.791-4 4v28c0 2.209 1.789 4 4 4s4-1.791 4-4v-28c0-2.209-1.789-4-4-4z"/><path d="m209.828 166c-11.188 0-21.493 3.738-29.833 9.97l-6.167-4.111v-7.277c6.96-5.28 11.484-13.611 11.484-23v-24.154c4.887-1.902 8.52-6.316 9.281-11.65l.922-6.432c.586-4.117-.602-8.311-3.258-11.504-1.836-2.201-4.258-3.805-6.945-4.65v-9.73c0-21.76-17.703-39.461-39.461-39.461h-9.344c-21.746 0-39.449 17.691-39.461 39.434-.004 4.379-.008 7.531.051 9.826-2.602.863-4.945 2.439-6.73 4.582-2.656 3.193-3.844 7.387-3.258 11.506l.918 6.428c.766 5.338 4.398 9.75 9.285 11.65v24.156c0 9.852 4.964 18.558 12.516 23.774v6.503l-9.211 6.14h-2.797c-17.641 0-31.992 14.352-31.992 31.994v48.006c0 2.209 1.789 4 4 4s4-1.791 4-4v-48.006c0-13.23 10.762-23.994 23.992-23.994h2.19l26.806 30.635c.766.871 1.863 1.365 3.012 1.365.117 0 .238-.006.355-.016 1.273-.113 2.418-.83 3.074-1.926l8.57-14.284 8.57 14.284c.656 1.096 1.801 1.812 3.074 1.926.117.01.238.016.355.016 1.148 0 2.246-.494 3.012-1.365l3.138-3.585c-.058.982-.149 1.955-.149 2.951 0 27.57 22.43 50 50 50s50-22.43 50-50-22.429-50.001-49.999-50.001zm-113.879-61.357-.918-6.426c-.273-1.91.254-3.777 1.484-5.258 1.203-1.441 2.957-2.326 4.832-2.438 1.027-.014 2.039-.422 2.793-1.176 1.016-1.018 1.398-2.486 1.039-3.848-.051-.811-.141-3.463-.133-12.059.013-17.334 14.126-31.438 31.462-31.438h9.344c17.348 0 31.461 14.113 31.461 31.461v13.057c0 2.146 1.695 3.91 3.836 3.996 1.922.078 3.73.971 4.961 2.445 1.23 1.48 1.758 3.348 1.484 5.254l-.922 6.432c-.426 2.992-2.836 5.35-5.863 5.732-1.996.254-3.496 1.955-3.496 3.969v19.246l-1.699-.34c-5.969-1.195-10.301-6.479-10.301-12.566 0-5.633-4.586-10.215-10.219-10.215h-27.566c-5.633 0-10.215 4.582-10.215 10.215 0 6.088-4.332 11.371-10.301 12.566l-1.699.34v-19.246c0-2.014-1.5-3.715-3.496-3.969-3.028-.383-5.442-2.742-5.868-5.734zm9.38 37.103 3.253-.651c9.695-1.939 16.73-10.523 16.73-20.41 0-1.221.992-2.215 2.215-2.215h27.566c1.223 0 2.219.994 2.219 2.215 0 9.887 7.035 18.471 16.73 20.41l3.253.651c-.091 11.44-9.411 20.722-20.874 20.722h-30.223c-11.458.001-20.778-9.281-20.869-20.722zm20.87 28.723h30.223c3.296 0 6.453-.582 9.406-1.603v3.076l-24 17.143-24-17.143v-2.719c2.652.804 5.46 1.246 8.371 1.246zm3.024 36.765-21.383-24.436 5.91-3.939 22.75 16.25zm25.211 0-7.277-12.125 22.75-16.25 3.874 2.582c-4.194 4.373-7.631 9.479-10.025 15.14zm55.394 50.766c-23.16 0-42-18.842-42-42s18.84-42 42-42 42 18.842 42 42-18.84 42-42 42z"/><path d="m192.039 209.578 16 8c.562.281 1.176.422 1.789.422s1.227-.141 1.789-.422l16-8c1.027-.514 1.781-1.443 2.078-2.551.293-1.109.098-2.291-.539-3.246l-16-24c-1.484-2.227-5.172-2.227-6.656 0l-16 24c-.637.955-.832 2.137-.539 3.246.297 1.108 1.051 2.037 2.078 2.551zm17.789-20.367 10.16 15.238-10.16 5.078-10.16-5.078z"/><path d="m224.039 214.422-14.211 7.105-14.211-7.105c-1.539-.766-3.395-.473-4.617.75-1.219 1.217-1.52 3.076-.75 4.617l16 32c.68 1.355 2.062 2.211 3.578 2.211s2.898-.855 3.578-2.211l16-32c.77-1.541.469-3.4-.75-4.617-1.218-1.219-3.074-1.51-4.617-.75zm-14.211 26.635-7.055-14.113 5.266 2.635c1.125.562 2.453.562 3.578 0l5.266-2.635z"/></g></svg>