<?xml version="1.0" encoding="iso-8859-1"?>
<!-- Generator: Adobe Illustrator 19.0.0, SVG Export Plug-In . SVG Version: 6.00 Build 0)  -->
<svg version="1.1" id="Capa_1" xmlns="http://www.w3.org/2000/svg" xmlns:xlink="http://www.w3.org/1999/xlink" x="0px" y="0px"
	 viewBox="0 0 480.633 480.633" style="enable-background:new 0 0 480.633 480.633;" xml:space="preserve" fill="#3dae2a">
<g>
	<g>
		<path d="M264.934,0.001C158.895-0.348,72.651,85.33,72.302,191.369c-3.448,8.8-30.4,66.336-47.2,101.84
			c-1.891,3.993-0.187,8.763,3.806,10.654c1.061,0.503,2.22,0.765,3.394,0.77h40.152l-0.112,87.952
			c-0.026,22.091,17.861,40.021,39.952,40.048c0.016,0,0.032,0,0.048,0h63.96v40c0,4.418,3.582,8,8,8h216c4.418,0,8-3.582,8-8
			v-72.48c0.055-30.148,6.603-59.93,19.2-87.32l8-17.264c13.649-29.661,20.692-61.933,20.64-94.584
			c0.072-2.752,0.16-5.552,0.16-8.352C456.651,86.594,370.973,0.35,264.934,0.001z M440.102,200.633
			c0.072,30.445-6.479,60.54-19.2,88.2l-8,17.272c-13.542,29.506-20.568,61.583-20.6,94.048v64.48h-200v-40c0-4.418-3.582-8-8-8
			h-71.96c-13.255,0-24-10.745-24-24l0.12-96c0-4.418-3.582-8-8-8h-35.52c43.36-91.672,43.36-93.784,43.36-96
			c0-97.202,78.798-176,176-176s176,78.798,176,176C440.302,195.201,440.214,197.745,440.102,200.633z"/>
	</g>
</g>
<g>
	<g>
		<path d="M311.309,200.711c-1.591-6.231-5.029-11.836-9.863-16.078c13.237-11.617,14.55-31.764,2.934-45.001
			c-4.242-4.834-9.847-8.272-16.078-9.863v-17.136h-16v16h-16v-16h-16v16h-16c-4.418,0-8,3.582-8,8v96c0,4.418,3.582,8,8,8h16v16h16
			v-16h16v16h16v-17.136C305.366,235.14,315.666,217.775,311.309,200.711z M280.302,224.633h-48v-32h48c8.837,0,16,7.163,16,16
			S289.138,224.633,280.302,224.633z M280.302,176.633h-48v-32h48c8.837,0,16,7.163,16,16S289.138,176.633,280.302,176.633z"/>
	</g>
</g>
<g>
	<g>
		<path d="M160.302,184.633h16c0.057-48.577,39.423-87.943,88-88v-16C206.892,80.699,160.368,127.223,160.302,184.633z"/>
	</g>
</g>
<g>
	<g>
		<path d="M352.302,184.633c-0.057,48.577-39.423,87.943-88,88v16c57.41-0.066,103.934-46.59,104-104H352.302z"/>
	</g>
</g>
<g>
	<g>
		<path d="M369.582,270.593c47.633-58.115,39.135-143.841-18.981-191.474C292.486,31.487,206.76,39.985,159.127,98.1
			c-43.595,53.19-40.644,130.548,6.878,180.261l-26.504,19.872c-2.014,1.511-3.2,3.882-3.2,6.4v33.472
			c-12.497,4.418-19.046,18.131-14.627,30.627c4.418,12.497,18.131,19.046,30.627,14.627s19.046-18.131,14.627-30.627
			c-2.416-6.835-7.793-12.211-14.627-14.627v-29.472l25.504-19.128c8.875,7.272,18.632,13.395,29.04,18.224l-19.344,14.504
			c-2.014,1.511-3.2,3.882-3.2,6.4v16h16v-12l24-18.016c10.403,3.145,21.147,5.025,32,5.6v21.096l-21.656,21.656
			c-1.502,1.502-2.346,3.54-2.344,5.664v33.472c-12.497,4.418-19.046,18.131-14.627,30.627
			c4.418,12.497,18.131,19.046,30.627,14.627s19.046-18.131,14.627-30.627c-2.416-6.835-7.793-12.211-14.627-14.627v-30.16
			l21.656-21.656c1.5-1.5,2.344-3.534,2.344-5.656v-24.408c8.09-0.464,16.122-1.653,24-3.552v45.432
			c-12.497,4.418-19.046,18.131-14.627,30.627s18.131,19.046,30.627,14.627c12.497-4.418,19.046-18.131,14.627-30.627
			c-2.416-6.835-7.793-12.211-14.627-14.627v-49.472h-2.488c6.354-2.225,12.534-4.92,18.488-8.064v24.064
			c0,2.122,0.844,4.156,2.344,5.656l21.656,21.656v44.688h16v-48c0-2.122-0.844-4.156-2.344-5.656l-21.656-21.656v-30.952
			c5.072-3.662,9.883-7.672,14.4-12l13.6,13.6v32.664h16v-36c0-2.122-0.844-4.156-2.344-5.656L369.582,270.593z M144.302,368.633
			c-4.418,0-8-3.582-8-8s3.582-8,8-8s8,3.582,8,8S148.72,368.633,144.302,368.633z M240.302,432.633c-4.418,0-8-3.582-8-8
			s3.582-8,8-8s8,3.582,8,8S244.72,432.633,240.302,432.633z M312.302,384.633c0,4.418-3.582,8-8,8s-8-3.582-8-8s3.582-8,8-8
			S312.302,380.215,312.302,384.633z M264.302,304.633c-66.274,0-120-53.726-120-120c0.075-66.243,53.757-119.925,120-120
			c66.274,0,120,53.726,120,120S330.576,304.633,264.302,304.633z"/>
	</g>
</g>
<g>
	<g>
		<rect x="184.302" y="360.633" width="16" height="16"/>
	</g>
</g>
<g>
	<g>
		<rect x="352.302" y="416.633" width="16" height="16"/>
	</g>
</g>
<g>
</g>
<g>
</g>
<g>
</g>
<g>
</g>
<g>
</g>
<g>
</g>
<g>
</g>
<g>
</g>
<g>
</g>
<g>
</g>
<g>
</g>
<g>
</g>
<g>
</g>
<g>
</g>
<g>
</g>
</svg>
